<?xml version="1.0" standalone="no"?><!DOCTYPE svg PUBLIC "-//W3C//DTD SVG 1.1//EN" "http://www.w3.org/Graphics/SVG/1.1/DTD/svg11.dtd"><svg t="1713765668748" class="icon" viewBox="0 0 1024 1024" version="1.1" xmlns="http://www.w3.org/2000/svg" p-id="5330" xmlns:xlink="http://www.w3.org/1999/xlink" width="200" height="200"><path d="M608 609a352 352 0 0 1 352 352c0 17.673-14.327 32-32 32H96c-17.673 0-32-14.327-32-32 0-194.404 157.596-352 352-352h192z m203.647 148.353A288 288 0 0 0 608 673H416c-148.242 0-270.324 112.002-286.242 256h764.46a288.006 288.006 0 0 0-82.571-171.647zM512 545c-141.385 0-256-114.615-256-256S370.615 33 512 33s256 114.615 256 256-114.615 256-256 256z m0-64c106.039 0 192-85.961 192-192S618.039 97 512 97s-192 85.961-192 192 85.961 192 192 192z" fill="#8EA9BF" p-id="5331"></path></svg>