<?xml version="1.0" standalone="no"?><!DOCTYPE svg PUBLIC "-//W3C//DTD SVG 1.1//EN" "http://www.w3.org/Graphics/SVG/1.1/DTD/svg11.dtd"><svg t="1713779177437" class="icon" viewBox="0 0 1024 1024" version="1.1" xmlns="http://www.w3.org/2000/svg" p-id="17567" xmlns:xlink="http://www.w3.org/1999/xlink" width="200" height="200"><path d="M894.336 945.28a38.336 38.336 0 0 1 3.648 76.48l-3.648 0.192H127.872a38.336 38.336 0 0 1-3.712-76.48l3.712-0.192h766.464zM511.104 217.152a268.288 268.288 0 0 1 268.224 268.288v370.432c0 21.184-17.152 38.4-38.272 38.4H281.152a38.336 38.336 0 0 1-38.336-38.4V485.44a268.288 268.288 0 0 1 268.288-268.288z m0 76.672a191.616 191.616 0 0 0-191.616 191.616v332.16h383.232v-332.16A191.616 191.616 0 0 0 511.104 293.76zM400.768 543.744L477.44 403.2a38.336 38.336 0 0 1 68.928 33.408l-1.664 3.264-45.696 83.84h88.704a38.336 38.336 0 0 1 35.136 53.76l-1.472 2.944-76.672 140.544a38.336 38.336 0 0 1-68.864-33.408l1.6-3.328 45.76-83.84H434.432a38.336 38.336 0 0 1-35.072-53.696l1.408-2.944L477.44 403.2 400.768 543.744zM178.944 344.896a38.336 38.336 0 0 1 3.712 76.48l-3.712 0.192H102.4a38.336 38.336 0 0 1-3.712-76.48l3.712-0.192h76.608z m740.928 0a38.336 38.336 0 0 1 3.648 76.48l-3.648 0.192h-76.672a38.336 38.336 0 0 1-3.648-76.48l3.648-0.192h76.672zM279.808 110.784l2.88 2.624 51.136 51.072a38.336 38.336 0 0 1-51.328 56.896l-2.88-2.624-51.136-51.136a38.336 38.336 0 0 1 51.328-56.832z m513.92 2.624a38.336 38.336 0 0 1 0 54.208l-51.2 51.136a38.336 38.336 0 0 1-54.144-54.272l51.072-51.072a38.336 38.336 0 0 1 54.208 0zM511.04 0c19.712 0 36.224 14.976 38.144 34.624L549.44 38.4v76.608a38.336 38.336 0 0 1-76.48 3.712l-0.192-3.712V38.4c0-21.12 17.152-38.336 38.336-38.336z" fill="#d81e06" p-id="17568"></path></svg>