<?xml version="1.0" standalone="no"?><!DOCTYPE svg PUBLIC "-//W3C//DTD SVG 1.1//EN" "http://www.w3.org/Graphics/SVG/1.1/DTD/svg11.dtd"><svg t="1713774442089" class="icon" viewBox="0 0 1024 1024" version="1.1" xmlns="http://www.w3.org/2000/svg" p-id="11085" xmlns:xlink="http://www.w3.org/1999/xlink" width="200" height="200"><path d="M512 512m-448 0a448 448 0 1 0 896 0 448 448 0 1 0-896 0Z" fill="#B2E8FF" p-id="11086"></path><path d="M683.52 727.552c-5.504-5.248-12.8-8.192-20.48-8.192h-97.024l-3.072-24.704C680.448 676.352 770.56 574.464 770.56 451.968c0-135.424-110.208-245.76-245.76-245.76-135.424 0-245.76 110.208-245.76 245.76 0 122.496 90.112 224.384 207.488 242.688l-3.072 24.704H386.56c-7.68 0-14.848 2.944-20.48 8.192l-27.264 25.728c-9.088 8.576-11.776 20.992-7.168 32.64 4.608 11.52 15.232 18.688 27.648 18.688h331.008c12.416 0 23.04-7.168 27.648-18.688 4.608-11.52 1.792-24.064-7.168-32.64L683.52 727.552zM524.8 410.368c60.928 0 110.464 49.536 110.464 110.464 0 60.928-49.536 110.464-110.464 110.464s-110.464-49.536-110.464-110.464c0-60.928 49.536-110.464 110.464-110.464z" fill="#1A6C91" opacity=".5" p-id="11087"></path><path d="M524.8 573.184m-52.352 0a52.352 52.352 0 1 0 104.704 0 52.352 52.352 0 1 0-104.704 0Z" fill="#1A6C91" opacity=".5" p-id="11088"></path><path d="M692.608 746.112l-27.264-25.728c-4.096-3.84-9.472-6.016-15.104-6.016h-103.808l-6.528-53.76-55.552-1.152-6.656 54.912H373.76c-5.632 0-11.008 2.176-15.104 6.016l-27.264 25.728c-14.464 13.696-4.736 38.144 15.104 38.144h331.008c19.968 0 29.696-24.448 15.104-38.144z" fill="#FFFFFF" p-id="11089"></path><path d="M677.504 791.936H346.496c-12.416 0-23.04-7.168-27.648-18.688-4.608-11.52-1.792-24.064 7.168-32.64l27.136-25.728c5.504-5.248 12.8-8.192 20.48-8.192h97.024l5.888-48.128c0.512-3.84 3.712-6.784 7.68-6.784h0.128l55.552 1.152c3.84 0.128 7.04 2.944 7.424 6.784l5.76 47.104H650.24c7.68 0 14.848 2.944 20.48 8.192l27.136 25.728c9.088 8.576 11.776 20.992 7.168 32.64-4.48 11.264-15.104 18.56-27.52 18.56zM373.76 722.048c-3.712 0-7.168 1.408-9.856 3.968l-27.264 25.6c-5.248 4.992-5.248 11.392-3.456 15.744 1.792 4.352 6.144 9.088 13.312 9.088h331.008c7.168 0 11.648-4.736 13.312-9.088 1.792-4.352 1.792-10.88-3.456-15.744l-27.264-25.728c-2.688-2.56-6.144-3.968-9.856-3.968h-103.808c-3.84 0-7.168-2.944-7.68-6.784l-5.76-47.232-41.984-0.896-5.888 48c-0.512 3.84-3.712 6.784-7.68 6.784h-103.68z" fill="#1A6C91" p-id="11090"></path><path d="M512 201.216c-131.456 0-238.08 106.624-238.08 238.08s106.624 238.08 238.08 238.08 238.08-106.624 238.08-238.08-106.624-238.08-238.08-238.08z m0 424.96c-65.28 0-118.144-52.864-118.144-118.144s52.864-118.144 118.144-118.144 118.144 52.864 118.144 118.144c0 65.152-52.864 118.144-118.144 118.144z" fill="#FFFFFF" p-id="11091"></path><path d="M512 684.928c-135.424 0-245.76-110.208-245.76-245.76 0-135.424 110.208-245.76 245.76-245.76 135.424 0 245.76 110.208 245.76 245.76s-110.336 245.76-245.76 245.76z m0-476.032c-126.976 0-230.4 103.296-230.4 230.4s103.296 230.4 230.4 230.4 230.4-103.296 230.4-230.4-103.424-230.4-230.4-230.4z m0 424.96c-69.376 0-125.824-56.448-125.824-125.824 0-69.376 56.448-125.824 125.824-125.824s125.824 56.448 125.824 125.824c0 69.376-56.448 125.824-125.824 125.824z m0-236.288c-60.928 0-110.464 49.536-110.464 110.464 0 60.928 49.536 110.464 110.464 110.464s110.464-49.536 110.464-110.464c0-60.928-49.536-110.464-110.464-110.464z" fill="#1A6C91" p-id="11092"></path><path d="M512 560.384m-44.672 0a44.672 44.672 0 1 0 89.344 0 44.672 44.672 0 1 0-89.344 0Z" fill="#FFFFFF" p-id="11093"></path><path d="M512 612.736c-28.928 0-52.352-23.552-52.352-52.352s23.552-52.352 52.352-52.352 52.352 23.552 52.352 52.352-23.424 52.352-52.352 52.352z m0-89.472c-20.352 0-36.992 16.64-36.992 36.992s16.64 36.992 36.992 36.992 36.992-16.64 36.992-36.992-16.64-36.992-36.992-36.992z" fill="#1A6C91" p-id="11094"></path></svg>